<?xml version="1.0" standalone="no"?>
<!DOCTYPE svg PUBLIC "-//W3C//DTD SVG 20010904//EN"
 "http://www.w3.org/TR/2001/REC-SVG-20010904/DTD/svg10.dtd">
<svg version="1.0" xmlns="http://www.w3.org/2000/svg"
 width="512.000000pt" height="512.000000pt" viewBox="0 0 512.000000 512.000000"
 preserveAspectRatio="xMidYMid meet">

<g transform="translate(0.000000,512.000000) scale(0.100000,-0.100000)"
fill="#000000" stroke="none">
<path d="M2550 4916 c-197 -23 -351 -67 -500 -141 -163 -82 -206 -129 -198
-214 3 -27 41 -130 90 -246 158 -372 691 -1666 687 -1669 -3 -3 -745 -68
-1986 -175 -113 -10 -146 -24 -181 -76 -66 -95 -48 -383 38 -630 98 -279 262
-549 449 -736 133 -133 248 -212 355 -244 35 -10 41 -17 53 -57 10 -35 30 -62
95 -124 205 -195 499 -327 873 -391 126 -21 417 -24 525 -4 99 18 218 57 254
83 27 19 30 20 63 4 43 -21 174 -21 280 -1 438 84 966 476 1158 860 25 50 51
114 58 142 12 47 18 55 57 76 120 63 269 335 335 609 56 236 78 597 47 778
-29 162 -104 361 -157 410 -23 21 -23 23 -8 56 33 68 -17 284 -108 468 -172
348 -510 691 -826 837 -82 38 -216 79 -260 79 -15 0 -28 10 -38 30 -53 103
-322 224 -587 265 -144 22 -426 27 -568 11z m487 -137 c228 -27 533 -150 533
-215 0 -20 -37 -114 -44 -114 -2 0 -30 16 -62 35 -79 48 -197 92 -329 123
-103 25 -126 26 -355 27 -219 0 -256 -2 -346 -23 -139 -31 -231 -63 -331 -117
l-84 -45 -25 56 c-13 30 -24 59 -24 63 0 15 105 80 187 115 237 101 545 135
880 95z m-42 -280 c189 -23 404 -99 465 -164 l23 -24 -181 -418 c-165 -384
-537 -1173 -551 -1173 -4 0 -157 359 -340 797 l-334 796 29 24 c77 63 266 130
439 157 111 17 330 20 450 5z m851 -54 c188 -63 360 -180 539 -366 245 -255
385 -508 421 -762 l6 -47 -43 -19 c-86 -37 -86 -37 -94 15 -18 121 -96 302
-190 444 -200 299 -471 528 -715 606 -49 16 -90 32 -90 35 0 4 12 32 26 63 30
66 34 67 140 31z m-116 -252 c298 -100 673 -493 784 -823 27 -83 47 -188 36
-195 -4 -2 -207 -69 -451 -148 -434 -141 -1165 -354 -1176 -343 -11 11 305
722 500 1124 l201 413 30 -7 c17 -3 51 -13 76 -21z m1137 -1151 c51 -76 97
-241 114 -405 18 -181 -3 -433 -53 -632 -51 -206 -155 -413 -251 -504 l-26
-23 -55 32 c-36 20 -54 36 -49 43 4 7 23 33 43 58 53 67 115 192 154 310 61
185 86 346 86 564 0 206 -34 385 -97 508 -13 27 -23 50 -21 52 8 7 105 33 118
31 8 0 24 -16 37 -34z m-252 -109 c164 -331 78 -1002 -162 -1272 l-38 -43
-399 231 c-323 188 -1025 619 -1059 651 -24 22 1528 503 1603 497 20 -2 31
-14 55 -64z m-1855 -383 c0 -5 -4 -10 -9 -10 -6 0 -13 5 -16 10 -3 6 1 10 9
10 9 0 16 -4 16 -10z m-180 -55 c0 -3 -118 -164 -263 -358 -271 -362 -792
-1017 -809 -1017 -6 0 -38 17 -71 37 -264 160 -512 543 -588 908 -14 67 -18
269 -6 281 4 5 387 40 850 80 941 80 887 76 887 69z m636 -333 c403 -233 1077
-661 1082 -686 5 -24 -51 -139 -104 -213 -167 -234 -478 -457 -762 -547 -90
-28 -250 -53 -261 -40 -15 17 -201 972 -256 1309 -30 187 -57 351 -60 363 -3
13 -2 22 3 20 4 -1 166 -94 358 -206z m-447 -217 c76 -369 226 -1247 217
-1271 -7 -18 -145 -53 -253 -64 -366 -37 -883 131 -1068 347 l-35 42 262 353
c254 343 789 1011 794 992 2 -5 39 -184 83 -399z m-2059 284 c0 -251 97 -529
280 -802 111 -166 278 -330 398 -391 17 -9 32 -22 32 -29 0 -6 -18 -32 -40
-57 l-39 -45 -56 29 c-363 188 -724 804 -726 1240 -1 160 1 163 99 165 l52 1
0 -111z m3821 -891 c11 -21 -16 -94 -72 -190 -127 -217 -408 -459 -704 -606
-168 -84 -339 -132 -470 -132 -74 0 -76 2 -89 93 l-7 47 44 0 c177 0 441 100
665 253 221 150 392 331 479 508 l48 97 48 -27 c27 -14 53 -34 58 -43z m-2920
-521 c159 -145 417 -260 704 -313 50 -9 162 -19 250 -21 169 -5 281 8 391 47
l51 17 15 -71 c12 -52 13 -73 4 -79 -6 -4 -45 -18 -86 -31 -306 -97 -804 -31
-1163 156 -137 72 -307 210 -307 251 0 17 57 106 68 107 2 0 35 -28 73 -63z"/>
<path d="M2976 4356 c-43 -16 -100 -67 -122 -107 -84 -162 29 -350 210 -350
237 0 324 310 122 435 -57 36 -147 45 -210 22z m152 -151 c38 -32 48 -72 28
-118 -14 -35 -58 -67 -91 -67 -31 0 -82 31 -94 56 -21 46 -14 90 20 123 40 40
94 43 137 6z"/>
<path d="M2395 4170 c-26 -29 -22 -56 28 -162 50 -106 76 -130 120 -107 28 15
37 28 37 58 0 26 -72 186 -97 213 -21 24 -65 23 -88 -2z"/>
<path d="M2649 3793 c-35 -19 -64 -43 -84 -71 -27 -40 -30 -51 -30 -127 0 -76
2 -87 30 -126 39 -56 120 -99 184 -99 144 0 253 139 217 278 -16 62 -35 93
-78 125 -74 55 -156 61 -239 20z m129 -114 c36 -12 64 -63 55 -100 -14 -56
-66 -86 -120 -68 -32 10 -63 51 -63 83 0 31 26 69 55 82 37 16 36 16 73 3z"/>
<path d="M3705 3872 c-71 -34 -115 -103 -115 -181 0 -53 15 -89 53 -129 45
-47 78 -62 139 -62 64 0 117 28 162 83 28 36 31 45 31 112 0 82 -11 104 -78
159 -48 39 -131 47 -192 18z m115 -142 c11 -11 20 -31 20 -45 0 -27 -32 -65
-55 -65 -25 0 -64 22 -70 40 -7 23 10 66 32 79 27 16 51 13 73 -9z"/>
<path d="M4035 3425 c-35 -35 -29 -83 12 -100 38 -14 214 -44 231 -38 52 18
66 63 34 103 -14 17 -41 27 -113 41 -124 24 -136 23 -164 -6z"/>
<path d="M3567 3348 c-35 -28 -30 -59 25 -168 50 -99 55 -105 86 -108 40 -4
72 20 72 53 0 34 -87 213 -109 225 -26 14 -54 13 -74 -2z"/>
<path d="M3270 3049 c-145 -103 -171 -141 -132 -190 33 -40 71 -30 159 43 43
35 85 76 93 91 13 24 13 28 -6 54 -29 39 -61 40 -114 2z"/>
<path d="M4295 2855 c-47 -24 -92 -81 -105 -134 -37 -157 120 -288 265 -222
146 66 153 282 11 351 -50 24 -128 26 -171 5z m125 -135 c31 -31 26 -76 -10
-95 -38 -20 -46 -19 -70 5 -27 27 -26 75 2 94 30 21 54 20 78 -4z"/>
<path d="M3571 2383 c-24 -29 -20 -58 9 -84 19 -16 171 -49 227 -49 51 0 79
52 53 99 -12 24 -28 29 -125 47 -117 20 -140 19 -164 -13z"/>
<path d="M4216 2278 c-57 -16 -141 -101 -156 -158 -42 -157 96 -318 252 -294
152 23 239 170 189 316 -34 101 -173 167 -285 136z m120 -143 c55 -38 56 -132
1 -165 -39 -24 -70 -25 -108 -3 -57 34 -64 122 -12 163 30 24 89 27 119 5z"/>
<path d="M1115 2286 c-91 -43 -135 -112 -135 -211 0 -66 16 -108 59 -157 43
-49 108 -78 173 -77 69 1 111 17 155 59 50 49 73 103 73 175 0 76 -25 130 -79
176 -72 63 -161 75 -246 35z m145 -131 c31 -16 56 -72 45 -104 -20 -65 -87
-96 -143 -67 -38 20 -52 44 -52 91 0 75 79 117 150 80z"/>
<path d="M1714 2248 c-69 -47 -106 -104 -112 -173 -4 -48 0 -65 27 -120 18
-35 44 -73 59 -83 72 -50 164 -56 242 -14 65 34 106 89 122 164 11 55 11 58
-23 125 -29 58 -42 73 -89 101 -45 27 -64 32 -116 32 -53 0 -69 -5 -110 -32z
m181 -135 c52 -68 8 -153 -79 -153 -57 0 -100 78 -75 133 25 54 120 66 154 20z"/>
<path d="M1383 1604 c-78 -64 -93 -81 -93 -105 0 -37 32 -69 68 -69 32 0 201
132 203 159 4 54 -23 91 -65 91 -11 0 -63 -35 -113 -76z"/>
<path d="M3253 1896 c-156 -75 -176 -291 -35 -390 37 -26 54 -31 117 -34 66
-4 79 -1 126 24 197 107 127 402 -98 420 -47 4 -68 0 -110 -20z m161 -141 c46
-43 27 -130 -34 -155 -27 -11 -37 -11 -65 3 -41 19 -69 69 -60 104 17 70 106
97 159 48z"/>
<path d="M3810 1408 c-110 -89 -125 -124 -67 -163 15 -10 34 -14 49 -10 37 9
187 141 194 171 8 31 -28 74 -62 74 -13 0 -61 -31 -114 -72z"/>
<path d="M3270 1150 c-25 -25 -26 -64 -1 -89 19 -19 163 -51 229 -51 38 0 72
30 72 63 0 44 -22 59 -121 78 -122 24 -154 24 -179 -1z"/>
<path d="M2392 1758 c-24 -31 -21 -55 22 -146 24 -51 52 -102 62 -113 35 -39
104 -11 104 42 0 30 -83 208 -104 221 -18 12 -73 9 -84 -4z"/>
<path d="M2448 1211 c-51 -33 -83 -84 -94 -149 -23 -142 144 -259 275 -193 51
26 99 83 107 126 24 132 -52 235 -180 243 -54 3 -66 0 -108 -27z m127 -126
c30 -29 32 -58 5 -85 -22 -22 -51 -26 -81 -10 -28 16 -27 84 3 104 31 22 45
20 73 -9z"/>
<path d="M1985 1188 c-49 -28 -46 -56 15 -178 40 -80 55 -101 77 -106 31 -8
53 3 72 38 13 22 11 32 -28 119 -41 90 -78 139 -104 139 -7 0 -21 -6 -32 -12z"/>
<path d="M850 4726 c-164 -66 -383 -268 -529 -486 -192 -288 -303 -589 -317
-860 -10 -184 15 -268 89 -303 21 -10 99 -22 212 -31 99 -8 557 -56 1018 -106
913 -98 887 -97 942 -40 35 37 46 120 22 166 -34 63 -1265 1640 -1293 1655
-50 28 -86 29 -144 5z m114 -170 c39 -46 40 -49 22 -60 -208 -123 -349 -270
-497 -520 -144 -243 -236 -564 -213 -745 l7 -54 -59 7 c-86 11 -89 16 -87 149
5 452 344 1048 706 1243 34 19 66 32 71 31 6 -2 28 -25 50 -51z m675 -850
c298 -382 541 -700 541 -705 0 -6 -14 -11 -31 -11 -67 0 -1715 182 -1723 190
-14 14 -9 207 8 285 38 179 117 358 238 541 88 134 242 292 343 352 39 23 73
42 77 42 3 0 250 -312 547 -694z"/>
<path d="M953 4155 c-154 -77 -174 -274 -39 -393 140 -123 376 -10 376 180 0
180 -178 292 -337 213z m136 -115 c5 0 20 -11 35 -25 20 -19 26 -33 26 -67 0
-51 -18 -81 -59 -98 -63 -26 -131 20 -131 87 0 21 7 49 16 62 19 26 72 53 92
46 8 -3 17 -5 21 -5z"/>
<path d="M634 3625 c-21 -32 -12 -65 49 -180 38 -72 45 -80 74 -83 36 -4 73
25 73 57 0 22 -76 189 -98 214 -24 27 -78 22 -98 -8z"/>
<path d="M1243 3570 c-85 -20 -150 -114 -140 -200 18 -151 155 -232 285 -169
92 45 130 165 82 259 -41 80 -144 130 -227 110z m95 -136 c46 -32 20 -107 -38
-107 -38 0 -60 23 -60 64 0 29 31 59 60 59 9 0 26 -7 38 -16z"/>
</g>
</svg>
